<svg xmlns="http://www.w3.org/2000/svg" viewBox="0 0 89.9 81"><defs><style>.cls-1{fill:#fff;}</style></defs><title>noArtboardWhiteKittyLogo</title><g id="Layer_2" data-name="Layer 2"><g id="Layer_1-2" data-name="Layer 1"><path class="cls-1" d="M48.7,43.3a3.7,3.7,0,0,0,2.1.6,5.85,5.85,0,0,0,2.2-.5,3.66,3.66,0,0,0,1.5-1.1,4,4,0,0,0,.8-2c.3-1.8.2-2.8-.4-2.9-2.7-.7-4.8-.2-6,1.4a3.49,3.49,0,0,0-.8,2.2C48,41.6,48,42.9,48.7,43.3Z"/><path class="cls-1" d="M33.1,45.4a3.45,3.45,0,0,0,1.8.5h.7a3.73,3.73,0,0,0,2.5-.7l.1-.1c1.2-1.2.3-3.5-.5-4.4a4.6,4.6,0,0,0-3.6-1.3,8.51,8.51,0,0,0-2.2.6,1.08,1.08,0,0,0-.8.9,4.31,4.31,0,0,0,.4,2.2A5.64,5.64,0,0,0,33.1,45.4Z"/><path class="cls-1" d="M64.2,0A25.64,25.64,0,0,0,46,7.5l-1,1-1-1A25.23,25.23,0,0,0,25.8,0,25.74,25.74,0,0,0,7.5,43.9L44.3,80.7a1,1,0,0,0,1.4,0l35-35L82.4,44a25.23,25.23,0,0,0,7.5-18.2A25.78,25.78,0,0,0,82.5,7.5,25.46,25.46,0,0,0,64.2,0ZM45,78.6,25.5,59.1c.1-.4.2-.9.3-1.3a5,5,0,0,0,.2-1.2c.3-1.3,2.2-3.7,2.9-4.4.1-.1.1-.2.1-.4s-.1-.3-.2-.3-4.6-3.9-4.8-8.9a29.82,29.82,0,0,1,1.3-9.7,2.57,2.57,0,0,0-.1-1.5l-1-2.5a2.74,2.74,0,0,1-.2-1.3v-.9a2.3,2.3,0,0,0-.4-1.4l-4.1-6.5a2.91,2.91,0,0,1,0-3c.6-.8,3.9.2,6.5,1.6a4.57,4.57,0,0,1,.6.4.35.35,0,0,0,.2.1q.75.45,1.8,1.2c1.4,1.3,2.9,2.7,3.6,3.4a34.29,34.29,0,0,1,2,2.9,1,1,0,0,0,.8.5.76.76,0,0,0,.5-.2,1,1,0,0,0,.3-1.4c-.2-.2-1.6-2.4-2.2-3.1A25.77,25.77,0,0,0,31.3,19l1.6.4H33a.37.37,0,0,0,.3-.1,23.79,23.79,0,0,1,7.6-3,75.77,75.77,0,0,1,8.6-.7c-1.5,3.3-2.8,7.1-2.9,7.3a1,1,0,0,0,.6,1.3c.1,0,.2.1.3.1a1,1,0,0,0,.9-.7c.8-2.3,3.1-8.5,4.8-10.8.1-.1.2-.2.2-.3a27.14,27.14,0,0,1,3.5-3.6c.8-.4,2.2-.9,2.8-.5a7.88,7.88,0,0,1,2.7,3.9,49.81,49.81,0,0,1,.4,5.9,36.07,36.07,0,0,0,.1,4.6,12.51,12.51,0,0,1-.7,3.4,1,1,0,0,0,.7,1.2h.3a1.2,1.2,0,0,0,1-.7c.1-.5.4-1.4.6-2.3,1.4,3.9,3.4,9.2,3.8,11.4a57.25,57.25,0,0,1,.3,7.8c0,3.3-.1,6.1.4,7.2A12,12,0,0,0,70.5,53Z"/><path class="cls-1" d="M61.2,54.5l-6-1.1c.2-.7.2-1.3.3-1.7v-.3l5.2-1.1a.76.76,0,0,0-.3-1.5l-4.8,1a1,1,0,0,0-2,.1v.3l-2.3.5a.78.78,0,0,0-.6.9.73.73,0,0,0,.7.6h.2l1.8-.4a5,5,0,0,1-.2,1.2l-1.6-.3a.76.76,0,1,0-.3,1.5l1.1.2a3.57,3.57,0,0,1-1.1,1l-1.6-.9a.74.74,0,1,0-.7,1.3l.7.4a6.77,6.77,0,0,1-4.7-.9L46.3,54a1.13,1.13,0,0,0,.3-1.1,1.09,1.09,0,0,0-.8-.8,3.46,3.46,0,0,0-1.8-.2,4.36,4.36,0,0,0-2.1.7,1.05,1.05,0,0,0-.5.9,1.28,1.28,0,0,0,.4,1l1.3,1.1c-.2.4-1.2,1.6-3.7,1.5l.6-.6a.78.78,0,0,0-1.1-1.1l-1.4,1.4a4.13,4.13,0,0,1-1.1-.7l1-.5a.76.76,0,1,0-.6-1.4l-1.2.6a9.74,9.74,0,0,1-.5-1.1l1.4-.1a.75.75,0,1,0-.1-1.5l-1.7.2a.92.92,0,0,0-1.1-.7,1.08,1.08,0,0,0-.8.9l-3.4.3a.77.77,0,0,0-.7.8.75.75,0,0,0,.7.7h.1l3.6-.3a9.09,9.09,0,0,0,.8,1.8l-4.3,2.1a.82.82,0,0,0-.4,1,.67.67,0,0,0,.7.4.37.37,0,0,0,.3-.1L34.7,57a6.39,6.39,0,0,0,1.5,1.3l-3.3,3.3a.78.78,0,0,0,0,1.1.73.73,0,0,0,1,0L37.6,59h.1a7.14,7.14,0,0,0,2,.2h.2a8.8,8.8,0,0,0,4.9,1.7,7.54,7.54,0,0,0,3.5-.9,7.07,7.07,0,0,0,2-1.7,3.58,3.58,0,0,0,1.1-.4l.6-.3,5.2,3c.1.1.2.1.4.1a.75.75,0,0,0,.7-.4.69.69,0,0,0-.3-1l-4.7-2.8a7,7,0,0,0,1.4-1.7L61,55.9h.1a.67.67,0,0,0,.7-.6C61.9,55,61.6,54.6,61.2,54.5ZM44.9,58.8a6.47,6.47,0,0,1-2-.4,4.84,4.84,0,0,0,1.5-1.1,11.15,11.15,0,0,0,2.8,1A5.56,5.56,0,0,1,44.9,58.8Z"/></g></g></svg>