<?xml version="1.0" encoding="UTF-8"?>
<svg width="396px" height="396px" viewBox="0 0 396 396" version="1.1" xmlns="http://www.w3.org/2000/svg" xmlns:xlink="http://www.w3.org/1999/xlink">
    <!-- Generator: Sketch 51.3 (57544) - http://www.bohemiancoding.com/sketch -->
    <title>Group</title>
    <desc>Created with Sketch.</desc>
    <defs>
        <path d="M16.5692203,195.977613 L71.6932287,195.977613 L71.6932287,256.358093 C71.6929999,258.137976 72.4104014,259.843459 73.6845186,261.091999 C74.9586357,262.340538 76.6828201,263.027627 78.4703333,262.999149 L110.808329,262.999149 C114.492277,262.999149 117.478707,260.025847 117.478707,256.358093 L117.478707,195.977613 L129.565433,195.977613 L167.266413,231.015824 C172.204676,235.605355 178.707715,238.159061 185.463205,238.1616 L242.45492,238.1616 C246.785632,238.174791 250.681302,235.542512 252.268312,231.530754 C253.855322,227.518995 252.808871,222.948815 249.632247,220.018235 L213.55884,186.467621 L213.55884,103.295037 C213.55884,102.214759 213.55884,101.15219 213.55884,100.10733 C211.814792,77.183305 192.625541,59.4678564 169.534341,59.4640682 L92.8516695,59.4640682 L92.8516695,6.65439183 C92.8516695,4.8930743 92.1488995,3.20389575 90.8979609,1.95845619 C89.6470222,0.713016617 87.9503853,0.0133359534 86.181291,0.0133359534 L57.9255674,0.0133359534 C49.7869709,-0.267199685 42.1430566,3.89553859 37.9902355,10.8697592 C33.8374143,17.8439798 33.8374143,26.5183812 37.9902355,33.4926018 C42.1430566,40.4668224 49.7869709,44.6295606 57.9255674,44.349025 L79.5109124,44.349025 L79.5109124,59.4640682 L46.8260575,59.4640682 C20.9665242,59.4933706 0.0147012648,80.3649762 0,106.110845 L0,179.48123 C0.0146905277,188.585866 7.42438456,195.962987 16.5692203,195.977613 Z M104.13795,249.717037 L85.0339858,249.717037 L85.0339858,195.977613 L104.13795,195.977613 L104.13795,249.717037 Z M185.436524,224.879488 C182.069807,224.875112 178.829245,223.603563 176.364809,221.319882 L149.122983,195.977613 L204.246991,195.977613 L235.330955,224.879488 L185.436524,224.879488 Z M200.138038,101.037078 C200.138038,101.780876 200.138038,102.524674 200.138038,103.268473 L200.138038,182.695501 L138.770555,182.695501 L138.770555,103.295037 C138.151652,86.4233691 151.387511,72.2466652 168.333673,71.6304825 C185.279836,71.0142999 199.519135,84.1919743 200.138038,101.063642 L200.138038,101.037078 Z M86.181291,101.913697 C90.9851596,101.913697 94.8794646,105.790883 94.8794646,110.573634 C94.8794646,115.356385 90.9851596,119.233571 86.181291,119.233571 C81.3774223,119.233571 77.4831173,115.356385 77.4831173,110.573634 C77.4831173,108.276876 78.3995294,106.074187 80.0307534,104.450134 C81.6619774,102.826081 83.8743919,101.913697 86.181291,101.913697 Z M57.9255674,31.0669132 C54.6205415,31.2468938 51.4861951,29.5937451 49.7792782,26.7703149 C48.0723612,23.9468847 48.0723612,20.4154763 49.7792782,17.5920461 C51.4861951,14.7686158 54.6205415,13.1154671 57.9255674,13.2954477 L79.5109124,13.2954477 L79.5109124,31.0669132 L57.9255674,31.0669132 Z M13.3407571,106.110845 C13.3554447,87.7004776 28.3344195,72.7754667 46.8260575,72.7461799 L79.5109124,72.7461799 L79.5109124,89.6675903 C69.1520343,92.942671 62.7379109,103.247431 64.4023135,113.940664 C66.0667162,124.633896 75.3126463,132.522551 86.181291,132.522551 C97.0499356,132.522551 106.295866,124.633896 107.960268,113.940664 C109.624671,103.247431 103.210548,92.942671 92.8516695,89.6675903 L92.8516695,72.7461799 L138.050155,72.7461799 C130.031488,80.9002985 125.539475,91.856874 125.536524,103.268473 L125.536524,182.695501 L16.5692203,182.695501 C14.7714535,182.695501 13.3140756,181.24453 13.3140756,179.454666 L13.3407571,106.110845 Z" id="path-1"></path>
    </defs>
    <g id="Mailbox-Icon" stroke="none" stroke-width="1" fill="none" fill-rule="evenodd">
        <g id="Group" fill-rule="nonzero">
            <circle id="Oval-Copy" fill="#614B4E" cx="198" cy="198" r="198"></circle>
            <g id="noun_mailbox_1429943" transform="translate(77.000000, 62.000000)">
                <g id="Shape">
                    <use fill="#E4DDDE" xlink:href="#path-1"></use>
                    <use stroke="#E4DDDE" stroke-width="1" xlink:href="#path-1"></use>
                    <use stroke="#E4DDDE" stroke-width="2" xlink:href="#path-1"></use>
                    <use stroke="#E4DDDE" stroke-width="2" xlink:href="#path-1"></use>
                    <use stroke="#E4DDDE" stroke-width="2" xlink:href="#path-1"></use>
                    <use stroke="#E4DDDE" stroke-width="2" xlink:href="#path-1"></use>
                    <use stroke="#E4DDDE" stroke-width="2" xlink:href="#path-1"></use>
                    <use stroke="#E4DDDE" stroke-width="2" xlink:href="#path-1"></use>
                </g>
            </g>
        </g>
    </g>
</svg>