<?xml version="1.0" encoding="UTF-8"?>
<svg width="90px" height="82px" viewBox="0 0 90 82" version="1.1" xmlns="http://www.w3.org/2000/svg" xmlns:xlink="http://www.w3.org/1999/xlink">
    <!-- Generator: Sketch 51.3 (57544) - http://www.bohemiancoding.com/sketch -->
    <title>noun_Cat_975220 (1)@3x</title>
    <desc>Created with Sketch.</desc>
    <defs></defs>
    <g id="Logo-Icon" stroke="none" stroke-width="1" fill="none" fill-rule="evenodd">
        <g id="noun_Cat_975220-(1)" fill="#614B4E" fill-rule="nonzero">
            <g id="Group">
                <path d="M48.69,43.82 C49.29,44.21 50.02,44.41 50.81,44.41 C51.53,44.41 52.28,44.25 52.97,43.94 C53.64,43.64 54.14,43.27 54.51,42.82 C54.92,42.31 55.2,41.64 55.31,40.85 C55.58,39.03 55.46,38.04 54.95,37.91 C52.22,37.2 50.15,37.68 48.92,39.3 C48.45,39.93 48.16,40.72 48.09,41.53 C48.05,42.08 48.03,43.39 48.69,43.82 Z" id="Shape"></path>
                <path d="M33.13,45.88 C33.62,46.18 34.21,46.36 34.93,46.43 C35.15,46.45 35.38,46.46 35.63,46.46 C36.71,46.46 37.55,46.22 38.12,45.75 C38.17,45.71 38.21,45.67 38.26,45.63 C39.43,44.44 38.6,42.09 37.75,41.21 C36.88,40.29 35.52,39.82 34.16,39.95 C33.3,40.04 32.43,40.36 31.94,40.57 C31.62,40.7 31.23,40.87 31.13,41.44 C31.02,42.11 31.25,42.91 31.53,43.67 C31.66,44.04 32.17,45.29 33.13,45.88 Z" id="Shape"></path>
                <path d="M64.25,0.48 C57.34,0.48 50.87,3.15 46.02,8 L45,9.02 L43.98,8 C39.13,3.15 32.66,0.48 25.75,0.48 C18.84,0.48 12.37,3.15 7.52,8 C2.67,12.85 0,19.32 0,26.23 C0,33.14 2.67,39.61 7.52,44.46 L44.29,81.23 C44.48,81.42 44.74,81.52 45,81.52 C45.25,81.52 45.51,81.42 45.7,81.23 L80.75,46.19 L82.47,44.46 C87.33,39.61 90,33.14 90,26.23 C90,19.32 87.33,12.85 82.47,8 C77.63,3.15 71.15,0.48 64.25,0.48 Z M45,79.11 L25.51,59.62 C25.61,59.19 25.7,58.76 25.79,58.33 C25.87,57.92 25.95,57.52 26.03,57.14 C26.34,55.79 28.21,53.49 28.91,52.72 C29,52.62 29.04,52.48 29.03,52.35 C29.02,52.21 28.96,52.09 28.86,52 C28.81,51.96 24.28,48.07 24.05,43.13 C23.87,39.07 24.88,34.98 25.33,33.41 C25.47,32.93 25.44,32.41 25.25,31.96 L24.27,29.46 C24.11,29.06 24.04,28.63 24.04,28.19 L24.04,27.27 C24.04,26.77 23.89,26.27 23.62,25.83 L19.49,19.33 C19.48,19.31 18.47,17.67 19.46,16.38 C20.05,15.6 23.32,16.61 25.97,17.95 C25.98,17.96 26.19,18.1 26.53,18.32 C26.58,18.37 26.64,18.41 26.72,18.44 C27.187,18.748 27.841,19.186 28.54,19.669 C29.947,20.953 31.461,22.366 32.125,23.094 C32.515,23.523 33.565,25.083 34.136,25.966 C34.327,26.261 34.649,26.423 34.977,26.423 C35.164,26.423 35.351,26.371 35.519,26.262 C35.983,25.962 36.116,25.343 35.816,24.879 C35.656,24.632 34.233,22.441 33.605,21.749 C33.127,21.225 32.265,20.394 31.315,19.507 L32.96,19.881 C33,19.891 33.03,19.891 33.07,19.891 C33.17,19.891 33.26,19.861 33.34,19.811 C33.38,19.791 36.95,17.511 40.93,16.811 C43.783,16.302 47.576,16.169 49.576,16.133 C48.061,19.465 46.776,23.2 46.695,23.439 C46.516,23.961 46.796,24.53 47.318,24.709 C47.425,24.746 47.534,24.763 47.641,24.763 C48.057,24.763 48.446,24.501 48.587,24.086 C49.372,21.789 51.69,15.602 53.371,13.303 C53.451,13.197 53.533,13.082 53.61,12.991 C55.69,10.521 57.12,9.391 57.1,9.391 C57.85,9.001 59.29,8.521 59.94,8.901 C60.9,9.441 62.31,11.631 62.62,12.801 C62.866,13.738 62.986,17.255 63.009,18.657 C62.991,19.335 62.921,22.366 63.092,23.217 C63.143,23.627 62.768,25.318 62.385,26.641 C62.232,27.171 62.537,27.726 63.068,27.879 C63.161,27.906 63.255,27.919 63.347,27.919 C63.781,27.919 64.18,27.635 64.307,27.197 C64.456,26.681 64.701,25.784 64.877,24.907 C66.312,28.759 68.246,34.141 68.68,36.33 C69.03,38.06 69,41.15 68.97,44.13 C68.94,47.4 68.91,50.23 69.36,51.31 C69.66,52.03 70.09,52.78 70.55,53.55 L45,79.11 Z" id="Shape"></path>
                <path d="M61.218,55.001 L55.247,53.913 C55.435,53.225 55.487,52.621 55.52,52.2 L55.546,51.936 L60.735,50.86 C61.14,50.776 61.401,50.379 61.317,49.973 C61.233,49.568 60.838,49.31 60.43,49.391 L55.637,50.385 C55.546,49.971 55.213,49.639 54.77,49.59 C54.22,49.54 53.74,49.94 53.68,50.49 L53.649,50.797 L51.389,51.266 C50.984,51.35 50.723,51.747 50.807,52.153 C50.88,52.507 51.193,52.751 51.54,52.751 C51.591,52.751 51.642,52.746 51.693,52.735 L53.492,52.362 C53.46,52.719 53.405,53.124 53.273,53.554 L51.676,53.263 C51.269,53.19 50.878,53.458 50.803,53.867 C50.729,54.274 50.999,54.665 51.407,54.739 L52.542,54.946 C52.263,55.302 51.905,55.654 51.432,55.99 L49.838,55.087 C49.479,54.883 49.02,55.011 48.817,55.37 C48.613,55.73 48.739,56.188 49.1,56.392 L49.83,56.805 C47.989,57.334 45.983,56.41 45.11,55.92 L46.38,54.57 C46.66,54.27 46.77,53.85 46.67,53.45 C46.57,53.05 46.28,52.73 45.88,52.6 C45.34,52.41 44.76,52.34 44.09,52.4 C43.24,52.47 42.53,52.7 41.97,53.08 C41.66,53.29 41.47,53.62 41.44,53.99 C41.42,54.37 41.57,54.73 41.85,54.98 L43.13,56.12 C42.897,56.482 41.89,57.744 39.421,57.638 L40.028,57.03 C40.321,56.737 40.321,56.262 40.028,55.969 C39.734,55.675 39.259,55.677 38.967,55.969 L37.616,57.321 C37.206,57.155 36.851,56.904 36.541,56.606 L37.505,56.142 C37.878,55.963 38.035,55.515 37.856,55.142 C37.677,54.769 37.233,54.611 36.855,54.791 L35.617,55.386 C35.398,54.998 35.225,54.603 35.091,54.246 L36.491,54.121 C36.904,54.084 37.209,53.72 37.172,53.308 C37.134,52.895 36.76,52.589 36.359,52.627 L34.658,52.779 C34.518,52.306 34.058,51.996 33.54,52.079 C33.098,52.161 32.792,52.521 32.739,52.95 L29.35,53.252 C28.937,53.289 28.632,53.653 28.669,54.065 C28.704,54.455 29.031,54.749 29.415,54.749 C29.437,54.749 29.46,54.748 29.482,54.746 L33.04,54.429 C33.209,54.955 33.459,55.596 33.817,56.251 L29.507,58.323 C29.134,58.502 28.977,58.95 29.156,59.323 C29.285,59.592 29.553,59.748 29.833,59.748 C29.941,59.748 30.052,59.724 30.157,59.674 L34.663,57.508 C35.07,58.001 35.558,58.447 36.139,58.797 L32.886,62.052 C32.593,62.345 32.593,62.82 32.886,63.113 C33.032,63.259 33.225,63.333 33.416,63.333 C33.608,63.333 33.8,63.26 33.946,63.113 L37.65,59.407 C37.677,59.413 37.701,59.423 37.728,59.429 C38.468,59.589 39.148,59.649 39.758,59.649 C39.838,59.649 39.908,59.639 39.978,59.639 C41.618,60.769 43.268,61.349 44.888,61.349 C46.288,61.349 47.438,60.939 48.338,60.409 C49.238,59.879 49.878,59.239 50.288,58.759 C50.658,58.659 51.038,58.519 51.418,58.329 C51.614,58.228 51.794,58.123 51.971,58.018 L57.212,60.986 C57.328,61.052 57.455,61.083 57.58,61.083 C57.842,61.083 58.096,60.946 58.233,60.703 C58.437,60.343 58.311,59.885 57.95,59.681 L53.297,57.046 C53.913,56.489 54.354,55.905 54.67,55.333 L60.946,56.477 C60.992,56.485 61.037,56.489 61.082,56.489 C61.437,56.489 61.753,56.236 61.819,55.873 C61.896,55.466 61.625,55.075 61.218,55.001 Z M44.89,59.35 C44.17,59.35 43.49,59.18 42.86,58.93 C43.52,58.58 44.02,58.16 44.35,57.79 C45,58.13 45.98,58.57 47.1,58.8 C46.5,59.12 45.76,59.35 44.89,59.35 Z" id="Shape"></path>
            </g>
        </g>
    </g>
</svg>