<svg id="Layer_1" data-name="Layer 1" xmlns="http://www.w3.org/2000/svg" viewBox="0 0 100 125"><defs><style>.cls-1{fill:#fff;}</style></defs><title>whitecatlogo</title><path class="cls-1" d="M53.69,52.82a3.86,3.86,0,0,0,2.12.59A5.32,5.32,0,0,0,58,52.94a4.1,4.1,0,0,0,1.54-1.12,4,4,0,0,0,.8-2c.27-1.82.15-2.81-.36-2.94-2.73-.71-4.8-.23-6,1.39a4.39,4.39,0,0,0-.83,2.23C53.05,51.08,53,52.39,53.69,52.82Z"/><path class="cls-1" d="M38.13,54.88a4.15,4.15,0,0,0,1.8.55c.22,0,.45,0,.7,0a3.85,3.85,0,0,0,2.49-.71l.14-.12c1.17-1.19.34-3.54-.51-4.42A4.4,4.4,0,0,0,39.16,49a8.18,8.18,0,0,0-2.22.62,1.1,1.1,0,0,0-.81.87,4.71,4.71,0,0,0,.4,2.23A4.52,4.52,0,0,0,38.13,54.88Z"/><path class="cls-1" d="M69.25,9.48A25.59,25.59,0,0,0,51,17l-1,1-1-1A25.78,25.78,0,0,0,12.52,53.46L49.29,90.23a1,1,0,0,0,1.41,0l35.05-35,1.72-1.73a25.75,25.75,0,0,0-18.22-44ZM50,88.11,30.51,68.62c.1-.43.19-.86.28-1.29s.16-.81.24-1.19c.31-1.35,2.18-3.65,2.88-4.42a.5.5,0,0,0,.12-.37.51.51,0,0,0-.17-.35s-4.58-3.93-4.81-8.87a32.8,32.8,0,0,1,1.28-9.72A2.18,2.18,0,0,0,30.25,41l-1-2.5A3.4,3.4,0,0,1,29,37.19v-.92a2.77,2.77,0,0,0-.42-1.44l-4.13-6.5a2.8,2.8,0,0,1,0-2.95c.59-.78,3.86.23,6.51,1.57l.56.37a.52.52,0,0,0,.19.12l1.82,1.23c1.41,1.28,2.92,2.7,3.58,3.42.39.43,1.44,2,2,2.88a1,1,0,0,0,1.68-1.09c-.16-.25-1.59-2.44-2.21-3.13-.48-.52-1.34-1.36-2.29-2.24l1.64.37h.11a.5.5,0,0,0,.27-.08,23.89,23.89,0,0,1,7.59-3,62.15,62.15,0,0,1,8.65-.68c-1.52,3.34-2.8,7.07-2.88,7.31a1,1,0,0,0,.62,1.27.89.89,0,0,0,.32,0,1,1,0,0,0,1-.67c.78-2.3,3.1-8.49,4.78-10.79.08-.1.16-.22.24-.31a30.41,30.41,0,0,1,3.49-3.6c.75-.39,2.19-.87,2.84-.49a8.53,8.53,0,0,1,2.68,3.9A44.12,44.12,0,0,1,68,27.66a37.08,37.08,0,0,0,.08,4.56,16.31,16.31,0,0,1-.7,3.42,1,1,0,0,0,.68,1.24.86.86,0,0,0,.28,0,1,1,0,0,0,1-.72c.15-.52.39-1.42.57-2.29a112.19,112.19,0,0,1,3.8,11.42,47.06,47.06,0,0,1,.29,7.8c0,3.27-.06,6.1.39,7.18a18.2,18.2,0,0,0,1.19,2.24Z"/><path class="cls-1" d="M66.22,64l-6-1.09a8.5,8.5,0,0,0,.27-1.71l0-.26,5.19-1.08a.75.75,0,0,0-.31-1.47l-4.79,1a1,1,0,0,0-2,.11l0,.31-2.26.47a.75.75,0,0,0,.15,1.48h.15l1.8-.38a5.12,5.12,0,0,1-.22,1.19l-1.59-.29a.77.77,0,0,0-.88.61.76.76,0,0,0,.61.87l1.13.21a5.62,5.62,0,0,1-1.11,1l-1.59-.9a.75.75,0,1,0-.74,1.3l.73.42a6.69,6.69,0,0,1-4.72-.89l1.27-1.35a1.21,1.21,0,0,0,.29-1.12,1.19,1.19,0,0,0-.79-.85,4.16,4.16,0,0,0-1.79-.2,4.36,4.36,0,0,0-2.12.68,1.21,1.21,0,0,0-.53.91,1.23,1.23,0,0,0,.41,1l1.28,1.14a4,4,0,0,1-3.71,1.52L45,66A.75.75,0,0,0,44,65l-1.35,1.35a3.43,3.43,0,0,1-1.08-.71l1-.47a.75.75,0,1,0-.65-1.35l-1.23.6a8.13,8.13,0,0,1-.53-1.14l1.4-.13a.75.75,0,0,0-.13-1.49l-1.7.15a1,1,0,0,0-1.92.17l-3.39.3a.75.75,0,0,0-.68.82.74.74,0,0,0,.74.68h.07L38,63.43a10.23,10.23,0,0,0,.78,1.82l-4.31,2.07a.74.74,0,0,0-.35,1,.73.73,0,0,0,.67.43.8.8,0,0,0,.33-.08l4.5-2.16a6,6,0,0,0,1.48,1.29l-3.25,3.25a.74.74,0,0,0,0,1.06.71.71,0,0,0,.53.22.74.74,0,0,0,.53-.22l3.7-3.7.08,0a9.58,9.58,0,0,0,2,.22H45a8.67,8.67,0,0,0,4.91,1.71,6.72,6.72,0,0,0,3.45-.94,7.76,7.76,0,0,0,1.95-1.65,6.06,6.06,0,0,0,1.13-.43L57,67l5.24,3a.81.81,0,0,0,.37.09.72.72,0,0,0,.65-.38.74.74,0,0,0-.28-1L58.3,66.05a6.76,6.76,0,0,0,1.37-1.72L66,65.48h.13A.75.75,0,0,0,66.22,64ZM49.89,68.35a5.49,5.49,0,0,1-2-.42,5.41,5.41,0,0,0,1.49-1.14,10.72,10.72,0,0,0,2.75,1A4.66,4.66,0,0,1,49.89,68.35Z"/></svg>